<?xml version="1.0" encoding="UTF-8"?>
<svg width="1440px" height="228px" viewBox="0 0 1440 228" version="1.1" xmlns="http://www.w3.org/2000/svg" xmlns:xlink="http://www.w3.org/1999/xlink">
    <!-- Generator: Sketch 64 (93537) - https://sketch.com -->
    <title>Decoration</title>
    <desc>Created with Sketch.</desc>
    <defs>
        <path d="M0,81.0921425 C188.79726,156.082975 371.60976,193.578392 548.4375,193.578392 C813.679109,193.578392 949.747493,40.5803639 1106.4375,7.7530901 C1210.8975,-14.1317591 1322.085,10.3145917 1440,81.0921425 L1440,228 L0,228 L0,81.0921425 Z" id="path-1"></path>
        <linearGradient x1="110.716467%" y1="26.7373307%" x2="-57.4543642%" y2="74.1676201%" id="linearGradient-3">
            <stop stop-color="#00BCD4" offset="0%"></stop>
            <stop stop-color="#673AB7" offset="100%"></stop>
        </linearGradient>
        <linearGradient x1="78.6741043%" y1="-20.2172821%" x2="31.5875977%" y2="111.398504%" id="linearGradient-4">
            <stop stop-color="#673AB7" offset="0%"></stop>
            <stop stop-color="#D1C4E9" offset="100%"></stop>
            <stop stop-color="#D1C4E9" offset="100%"></stop>
        </linearGradient>
        <linearGradient x1="69.9528258%" y1="0%" x2="25.8535273%" y2="86.9361108%" id="linearGradient-5">
            <stop stop-color="#E91E63" offset="0%"></stop>
            <stop stop-color="#F8BBD0" offset="100%"></stop>
        </linearGradient>
    </defs>
    <g id="Page-1" stroke="none" stroke-width="1" fill="none" fill-rule="evenodd">
        <g id="Decoration">
            <mask id="mask-2" fill="white">
                <use xlink:href="#path-1"></use>
            </mask>
            <use id="Rectangle" fill="#000000" xlink:href="#path-1"></use>
            <path d="M1021.07417,479.392598 C1127.90639,261.892598 914.053621,85.8925977 782.037084,85.8925977 C650.020548,85.8925977 543,262.068549 543,479.392598 C543,696.716647 914.241952,696.892598 1021.07417,479.392598 Z" id="Oval" fill="#673AB7" mask="url(#mask-2)"></path>
            <path d="M307.619417,631.225124 C966.30054,602.459723 397.020185,345.225124 738.611179,159.225124 C1080.20217,-26.7748757 1073.47512,-54.3591611 972.28675,-120.280683 C871.098376,-186.202205 681.443937,-146.855851 548.681703,-32.3981422 C415.91947,82.0595666 -351.061706,659.990525 307.619417,631.225124 Z" id="Oval" fill="url(#linearGradient-3)" mask="url(#mask-2)"></path>
            <ellipse id="Oval" fill="url(#linearGradient-4)" mask="url(#mask-2)" cx="1114.5" cy="14.5" rx="255.5" ry="380.5"></ellipse>
            <path d="M1264.44915,198.404299 C1165.44915,313.404299 1726.00309,393.241198 1641.23678,232.863098 C1556.47047,72.4849971 1662.44915,54.4042992 1366.44915,-0.595700787 C1070.44915,-55.5957008 1363.44915,83.4042992 1264.44915,198.404299 Z" id="Oval" fill="#E91E63" mask="url(#mask-2)"></path>
            <path d="M33.6194171,589.892598 C692.30054,561.127197 123.020185,303.892598 464.611179,117.892598 C806.202173,-68.1074023 799.475124,-95.6916877 698.28675,-161.613209 C597.098376,-227.534731 407.443937,-188.188377 274.681703,-73.7306687 C141.91947,40.7270401 -625.061706,618.657999 33.6194171,589.892598 Z" id="Oval" fill="#B2EBF2" mask="url(#mask-2)"></path>
            <path d="M-53.6572045,354.892598 C22.5448934,404.531999 231.105316,199.053305 331.192798,112.772685 C431.280279,26.4920642 450.643208,-83.692884 374.44111,-133.332285 C298.239012,-182.971687 155.328072,-153.26811 55.2405902,-66.9874892 C-44.8468911,19.2931312 -129.859302,305.253196 -53.6572045,354.892598 Z" id="Oval" fill="url(#linearGradient-5)" mask="url(#mask-2)"></path>
            <path d="M-181.442152,117.617481 C-115.729371,160.372586 18.7757819,125.088184 118.983516,38.8075631 C219.191249,-47.4730573 247.154934,-152.077181 181.442152,-194.832285 C115.729371,-237.58739 -18.7757819,-202.302988 -118.983516,-116.022368 C-219.191249,-29.7417472 -247.154934,74.862376 -181.442152,117.617481 Z" id="Oval" fill="#D1C4E9" mask="url(#mask-2)"></path>
        </g>
    </g>
</svg>