<?xml version="1.0" encoding="UTF-8" standalone="no"?>
<!DOCTYPE svg PUBLIC "-//W3C//DTD SVG 1.1//EN" "http://www.w3.org/Graphics/SVG/1.1/DTD/svg11.dtd">
<svg width="100%" height="100%" viewBox="0 0 1633 567" version="1.1" xmlns="http://www.w3.org/2000/svg" xmlns:xlink="http://www.w3.org/1999/xlink" xml:space="preserve" xmlns:serif="http://www.serif.com/" style="fill-rule:evenodd;clip-rule:evenodd;stroke-linejoin:round;stroke-miterlimit:2;">
    <g id="Page-1">
        <g id="liquid-mini">
            <g id="Decoration">
                <path id="Oval" d="M259.753,351.862C352.909,351.862 368.187,242.138 356.999,145.752C345.811,49.367 272.662,-60.788 194.348,42.482C116.035,145.752 0.717,175.659 0.717,268.816C0.717,361.972 166.596,351.862 259.753,351.862Z" style="fill:rgb(209,196,233);"/>
                <clipPath id="_clip1">
                    <path id="Oval1" serif:id="Oval" d="M259.753,351.862C352.909,351.862 368.187,242.138 356.999,145.752C345.811,49.367 272.662,-60.788 194.348,42.482C116.035,145.752 0.717,175.659 0.717,268.816C0.717,361.972 166.596,351.862 259.753,351.862Z"/>
                </clipPath>
                <g clip-path="url(#_clip1)">
                    <path id="Oval2" serif:id="Oval" d="M20.798,180.942C30.053,290.431 132.711,334.139 174.549,314.405C216.387,294.67 215.382,202.922 172.306,109.478C129.229,16.034 11.543,71.453 20.798,180.942Z" style="fill:url(#_Linear2);"/>
                    <path id="Oval3" serif:id="Oval" d="M217.633,9.038C13.18,120.484 245.949,145.686 173.922,277.18C101.895,408.675 109.523,419.546 154.912,432.726C200.3,445.907 252.995,400.437 272.608,331.165C292.222,261.894 422.086,-102.408 217.633,9.038Z" style="fill:url(#_Linear3);"/>
                    <path id="Oval4" serif:id="Oval" d="M-21.177,150.49C-66.136,171.738 -68.798,262.392 -27.123,352.973C14.552,443.553 84.783,499.758 129.741,478.51C174.7,457.262 177.362,366.608 135.687,276.027C94.012,185.447 23.781,129.242 -21.177,150.49Z" style="fill:rgb(103,58,183);"/>
                    <path id="Oval5" serif:id="Oval" d="M313.438,-13.989C110.192,97.161 341.416,121.976 269.712,252.927C198.007,383.879 205.574,394.689 250.652,407.755C295.731,420.822 348.133,375.507 367.695,306.543C387.258,237.579 516.683,-125.138 313.438,-13.989Z" style="fill:rgb(178,235,242);"/>
                    <path id="Oval6" serif:id="Oval" d="M387.144,73.586C352.998,63.614 327.482,183.479 312.784,235.687C298.085,287.895 313.851,338.301 347.998,348.273C382.144,358.245 421.741,324.006 436.44,271.798C451.138,219.591 421.291,83.558 387.144,73.586Z" style="fill:url(#_Linear4);"/>
                    <path id="Oval7" serif:id="Oval" d="M475.58,156.264C446.248,147.738 410.473,183.241 395.673,235.563C380.873,287.884 392.653,337.21 421.984,345.736C451.316,354.262 487.091,318.759 501.891,266.437C516.691,214.116 504.911,164.79 475.58,156.264Z" style="fill:rgb(209,196,233);"/>
                    <path id="Oval8" serif:id="Oval" d="M171.984,-52.657C106.452,-56.077 64.567,-34.091 123.391,22.104C182.214,78.3 286.102,144.337 295.414,52.014C304.725,-40.309 237.516,-49.237 171.984,-52.657Z" style="fill:rgb(233,30,99);"/>
                </g>
            </g>
            <g id="Decoration1" serif:id="Decoration" transform="matrix(1,0,0,1,552,26)">
                <path id="Oval9" serif:id="Oval" d="M240.898,326.275C327.358,326.275 341.537,224.438 331.154,134.981C320.771,45.524 252.879,-56.712 180.196,39.134C107.512,134.981 0.483,162.738 0.483,249.198C0.483,335.658 154.439,326.275 240.898,326.275Z" style="fill:rgb(178,235,242);"/>
                <clipPath id="_clip5">
                    <path id="Oval10" serif:id="Oval" d="M240.898,326.275C327.358,326.275 341.537,224.438 331.154,134.981C320.771,45.524 252.879,-56.712 180.196,39.134C107.512,134.981 0.483,162.738 0.483,249.198C0.483,335.658 154.439,326.275 240.898,326.275Z"/>
                </clipPath>
                <g clip-path="url(#_clip5)">
                    <g id="Oval11" serif:id="Oval" transform="matrix(-0.857167,0.515038,-0.515038,-0.857167,623.573,37.8435)">
                        <path d="M214.555,95.83C223.81,205.319 326.468,249.027 368.306,229.293C410.144,209.558 409.139,117.809 366.063,24.366C322.986,-69.078 205.3,-13.659 214.555,95.83Z" style="fill:url(#_Linear6);"/>
                    </g>
                    <g id="Oval12" serif:id="Oval" transform="matrix(-0.857167,0.515038,-0.515038,-0.857167,444.305,167.956)">
                        <path d="M190.715,-56.875C-13.738,54.571 219.03,79.772 147.003,211.267C74.976,342.761 82.605,353.632 127.993,366.813C173.382,379.994 226.076,334.523 245.69,265.252C265.303,195.981 395.168,-168.321 190.715,-56.875Z" style="fill:url(#_Linear7);"/>
                    </g>
                    <g id="Oval13" serif:id="Oval" transform="matrix(-0.857167,0.515038,-0.515038,-0.857167,527.831,-208.442)">
                        <path d="M217.359,-195.041C172.4,-173.793 169.738,-83.138 211.414,7.442C253.089,98.022 323.319,154.227 368.278,132.979C413.237,111.732 415.899,21.077 374.223,-69.503C332.548,-160.084 262.318,-216.289 217.359,-195.041Z" style="fill:url(#_Linear8);"/>
                    </g>
                    <g id="Oval14" serif:id="Oval" transform="matrix(-0.857167,0.515038,-0.515038,-0.857167,351.163,333.303)">
                        <path d="M121.52,13.856C-81.725,125.005 149.499,149.821 77.795,280.772C6.09,411.723 13.657,422.534 58.735,435.6C103.813,448.666 156.215,403.352 175.778,334.388C195.341,265.424 324.766,-97.293 121.52,13.856Z" style="fill:rgb(0,96,100);"/>
                    </g>
                    <g id="Oval15" serif:id="Oval" transform="matrix(-0.857167,0.515038,-0.515038,-0.857167,254.925,368.04)">
                        <path d="M94.845,81.639C60.698,71.667 153.127,170.219 30.806,237.883C-91.516,305.548 21.551,346.355 55.698,356.327C89.845,366.299 59.049,323.924 144.14,279.852C229.231,235.779 128.991,91.611 94.845,81.639Z" style="fill:url(#_Linear9);"/>
                    </g>
                    <g id="Oval16" serif:id="Oval" transform="matrix(-0.857167,0.515038,-0.515038,-0.857167,93.244,427.305)">
                        <path d="M14.169,131.846C-15.163,123.32 -50.938,158.823 -65.738,211.144C-80.538,263.466 -68.758,312.792 -39.427,321.318C-10.095,329.844 25.68,294.341 40.48,242.019C55.28,189.698 43.5,140.372 14.169,131.846Z" style="fill:rgb(178,235,242);"/>
                    </g>
                    <g id="Oval17" serif:id="Oval" transform="matrix(-0.857167,0.515038,-0.515038,-0.857167,748.323,376.752)">
                        <path d="M298.123,216.983C232.591,213.563 190.706,235.549 249.529,291.744C308.353,347.94 412.241,413.977 421.552,321.654C430.864,229.331 363.655,220.403 298.123,216.983Z" style="fill:rgb(248,187,208);"/>
                    </g>
                </g>
            </g>
            <g id="Decoration2" serif:id="Decoration" transform="matrix(1,0,0,1,1078,26)">
                <path id="Oval18" serif:id="Oval" d="M399.957,540.505C543.792,540.505 567.381,371.506 550.107,223.052C532.833,74.598 419.888,-95.064 298.971,63.994C178.054,223.052 0,269.115 0,412.596C0,556.076 256.122,540.505 399.957,540.505Z" style="fill:rgb(0,188,212);"/>
                <clipPath id="_clip10">
                    <path id="Oval19" serif:id="Oval" d="M399.957,540.505C543.792,540.505 567.381,371.506 550.107,223.052C532.833,74.598 419.888,-95.064 298.971,63.994C178.054,223.052 0,269.115 0,412.596C0,556.076 256.122,540.505 399.957,540.505Z"/>
                </clipPath>
                <g clip-path="url(#_clip10)">
                    <g id="Oval20" serif:id="Oval" transform="matrix(-0.857167,0.515038,-0.515038,-0.857167,844.981,430.614)">
                        <path d="M209.87,316.495C225.356,498.378 396.027,571.079 465.548,538.337C535.068,505.596 533.313,353.189 461.626,197.927C389.94,42.666 194.384,134.612 209.87,316.495Z" style="fill:url(#_Linear11);"/>
                    </g>
                    <g id="Oval21" serif:id="Oval" transform="matrix(-0.857167,0.515038,-0.515038,-0.857167,618.645,691.073)">
                        <path d="M199.74,94.998C-139.98,279.93 246.933,322.012 127.339,540.372C7.746,758.732 20.436,776.797 95.889,798.734C171.343,820.672 258.885,745.19 291.419,630.141C323.954,515.092 539.461,-89.934 199.74,94.998Z" style="fill:rgb(233,30,99);"/>
                    </g>
                    <g id="Oval22" serif:id="Oval" transform="matrix(-0.857167,0.515038,-0.515038,-0.857167,597.957,-25.9283)">
                        <path d="M176.997,-202.561C102.29,-167.308 97.951,-16.723 167.305,133.781C236.66,284.285 353.444,377.714 428.151,342.461C502.858,307.208 507.197,156.623 437.842,6.119C368.488,-144.385 251.703,-237.814 176.997,-202.561Z" style="fill:url(#_Linear12);"/>
                    </g>
                    <g id="Oval23" serif:id="Oval" transform="matrix(-0.857167,0.515038,-0.515038,-0.857167,463.702,965.716)">
                        <path d="M84.693,212.452C-253.021,396.892 131.325,438.332 12.267,655.789C-106.791,873.247 -94.203,891.212 -19.266,912.959C55.672,934.706 142.728,859.483 175.178,744.944C207.629,630.405 422.407,28.011 84.693,212.452Z" style="fill:url(#_Linear13);"/>
                    </g>
                    <g id="Oval24" serif:id="Oval" transform="matrix(-0.857167,0.515038,-0.515038,-0.857167,303.661,1023.48)">
                        <path d="M40.353,325.078C-16.412,308.481 137.309,472.274 -65.94,584.557C-269.189,696.84 -81.219,764.732 -24.454,781.329C32.311,797.926 -18.915,727.508 122.475,654.378C263.865,581.249 97.119,341.675 40.353,325.078Z" style="fill:rgb(0,96,100);"/>
                    </g>
                    <g id="Oval25" serif:id="Oval" transform="matrix(-0.857167,0.515038,-0.515038,-0.857167,34.8813,1121.94)">
                        <path d="M-93.678,408.463C-142.439,394.273 -201.868,453.214 -226.418,540.112C-250.968,627.009 -231.342,708.957 -182.581,723.147C-133.821,737.338 -74.391,678.396 -49.841,591.499C-25.291,504.601 -44.918,422.653 -93.678,408.463Z" style="fill:rgb(178,235,242);"/>
                    </g>
                    <g id="Oval26" serif:id="Oval" transform="matrix(-0.857167,0.515038,-0.515038,-0.857167,1124.01,1037.59)">
                        <path d="M378.519,549.772C269.594,544.03 199.996,580.511 297.821,673.914C395.646,767.317 568.382,877.11 583.772,723.76C599.162,570.41 487.444,555.515 378.519,549.772Z" style="fill:rgb(248,187,208);"/>
                    </g>
                </g>
            </g>
        </g>
    </g>
    <defs>
        <linearGradient id="_Linear2" x1="0" y1="0" x2="1" y2="0" gradientUnits="userSpaceOnUse" gradientTransform="matrix(119.485,91.919,-91.919,119.485,49.2457,156.139)"><stop offset="0" style="stop-color:rgb(0,188,212);stop-opacity:1"/><stop offset="1" style="stop-color:rgb(103,58,183);stop-opacity:1"/></linearGradient>
        <linearGradient id="_Linear3" x1="0" y1="0" x2="1" y2="0" gradientUnits="userSpaceOnUse" gradientTransform="matrix(-49.0972,588.323,-588.323,-49.0972,255.68,-102.371)"><stop offset="0" style="stop-color:rgb(103,58,183);stop-opacity:1"/><stop offset="1" style="stop-color:rgb(209,196,233);stop-opacity:1"/><stop offset="1" style="stop-color:rgb(209,196,233);stop-opacity:1"/></linearGradient>
        <linearGradient id="_Linear4" x1="0" y1="0" x2="1" y2="0" gradientUnits="userSpaceOnUse" gradientTransform="matrix(27.8748,-247.556,247.556,27.8748,345.907,411.859)"><stop offset="0" style="stop-color:rgb(0,188,212);stop-opacity:1"/><stop offset="1" style="stop-color:rgb(103,58,183);stop-opacity:1"/></linearGradient>
        <linearGradient id="_Linear6" x1="0" y1="0" x2="1" y2="0" gradientUnits="userSpaceOnUse" gradientTransform="matrix(-75.7734,275.824,-275.824,-75.7734,388.666,-216.249)"><stop offset="0" style="stop-color:rgb(0,188,212);stop-opacity:1"/><stop offset="1" style="stop-color:rgb(103,58,183);stop-opacity:1"/></linearGradient>
        <linearGradient id="_Linear7" x1="0" y1="0" x2="1" y2="0" gradientUnits="userSpaceOnUse" gradientTransform="matrix(-12.0798,408.623,-408.623,-12.0798,198.863,-97.932)"><stop offset="0" style="stop-color:rgb(0,188,212);stop-opacity:1"/><stop offset="1" style="stop-color:rgb(103,58,183);stop-opacity:1"/></linearGradient>
        <linearGradient id="_Linear8" x1="0" y1="0" x2="1" y2="0" gradientUnits="userSpaceOnUse" gradientTransform="matrix(7.59211e-15,123.989,-123.989,7.59211e-15,361.15,-124.749)"><stop offset="0" style="stop-color:rgb(0,188,212);stop-opacity:1"/><stop offset="1" style="stop-color:rgb(178,235,242);stop-opacity:1"/><stop offset="1" style="stop-color:rgb(209,196,233);stop-opacity:1"/></linearGradient>
        <linearGradient id="_Linear9" x1="0" y1="0" x2="1" y2="0" gradientUnits="userSpaceOnUse" gradientTransform="matrix(-50.6443,240.692,-240.692,-50.6443,99.3432,80.938)"><stop offset="0" style="stop-color:rgb(233,30,99);stop-opacity:1"/><stop offset="1" style="stop-color:rgb(248,187,208);stop-opacity:1"/></linearGradient>
        <linearGradient id="_Linear11" x1="0" y1="0" x2="1" y2="0" gradientUnits="userSpaceOnUse" gradientTransform="matrix(-70.4012,397.791,-397.791,-70.4012,392.173,92.3814)"><stop offset="0" style="stop-color:rgb(0,188,212);stop-opacity:1"/><stop offset="1" style="stop-color:rgb(103,58,183);stop-opacity:1"/></linearGradient>
        <linearGradient id="_Linear12" x1="0" y1="0" x2="1" y2="0" gradientUnits="userSpaceOnUse" gradientTransform="matrix(-86.4091,339.565,-339.565,-86.4091,350.623,-173.303)"><stop offset="0" style="stop-color:rgb(103,58,183);stop-opacity:1"/><stop offset="1" style="stop-color:rgb(209,196,233);stop-opacity:1"/><stop offset="1" style="stop-color:rgb(209,196,233);stop-opacity:1"/></linearGradient>
        <linearGradient id="_Linear13" x1="0" y1="0" x2="1" y2="0" gradientUnits="userSpaceOnUse" gradientTransform="matrix(-33.5151,485.36,-485.36,-33.5151,105.42,385.903)"><stop offset="0" style="stop-color:rgb(209,196,233);stop-opacity:1"/><stop offset="0" style="stop-color:rgb(209,196,233);stop-opacity:1"/><stop offset="1" style="stop-color:rgb(103,58,183);stop-opacity:1"/></linearGradient>
    </defs>
</svg>
