<svg width="354" height="169" viewBox="0 0 354 169" fill="none" xmlns="http://www.w3.org/2000/svg">
<path d="M1.65499 121.638C0.446585 118.41 -0.100075 114.52 0.0150113 109.967C0.130102 105.356 0.763069 99.823 1.91392 93.3679C3.12232 86.9128 4.93493 79.9967 7.35173 72.6195C12.9334 55.502 20.529 40.373 30.1387 27.2323C31.8075 24.9846 33.5337 23.8607 35.3175 23.8607C37.1589 23.8607 38.9428 24.2641 40.669 25.071C42.4529 25.8779 44.0066 26.8289 45.33 27.9239C48.6675 30.6904 49.7608 32.9381 48.61 34.6672C40.4964 47.6925 33.8503 59.45 28.6714 69.9395C41.7336 69.0173 53.2422 64.8676 63.1971 57.4904C74.0728 49.4792 79.5105 39.739 79.5105 28.2697C79.5105 20.4891 75.6552 15.5325 67.9444 13.4C65.5851 12.766 62.7655 12.4491 59.4856 12.4491C56.2632 12.4491 52.897 12.7949 49.3868 13.4865C45.9343 14.1205 42.5967 15.0138 39.3744 16.1665C32.987 18.5295 27.1465 21.6418 21.8525 25.5033C20.3564 26.5983 18.9754 27.1458 17.7094 27.1458C16.4435 27.1458 15.0625 26.8289 13.5664 26.1949C12.0703 25.5033 10.7467 24.6676 9.59592 23.6878C5.10756 19.8839 5.74053 15.9359 11.4948 11.8439C19.8385 5.96517 32.1527 2.16129 48.4374 0.43226C51.4871 0.14409 55.5439 0 60.6076 0C65.7289 0 70.9366 0.8357 76.2305 2.5071C81.582 4.1785 85.869 6.42625 89.0914 9.2503C95.0183 14.5527 97.9818 21.9299 97.9818 31.382C97.9818 39.9119 94.6155 48.3265 87.883 56.6259C81.726 64.2913 73.785 70.5158 64.0603 75.2995C68.7213 77.3743 72.2026 80.2849 74.5043 84.0311C76.8636 87.7197 77.9857 91.7253 77.8705 96.0479C77.7555 100.313 76.8923 104.261 75.2811 107.892C73.7275 111.465 71.5983 114.721 68.8939 117.661C66.2469 120.543 63.1396 123.107 59.5719 125.355C56.0618 127.545 52.3503 129.361 48.4374 130.801C40.4389 133.798 32.3253 135.297 24.0967 135.297C12.5306 135.297 5.05001 130.744 1.65499 121.638ZM22.543 83.9446C18.1698 94.8376 15.8681 104.318 15.6379 112.387C15.5229 116.306 16.4723 119.332 18.4863 121.465C20.5578 123.54 23.3774 124.577 26.945 124.577C30.5127 124.577 34.1955 123.799 37.9933 122.243C41.7912 120.687 45.2725 118.583 48.4374 115.932C55.6878 109.823 59.4281 102.906 59.6583 95.1834C59.8309 88.152 56.6659 83.3683 50.1636 80.8324C48.2072 80.0831 46.1069 79.5932 43.8627 79.3627C41.1582 79.478 37.3604 80.1696 32.4692 81.4375C27.6356 82.7055 24.3269 83.5412 22.543 83.9446Z" fill="url(#paint0_linear_56063_123)"/>
<path d="M109.193 126.844C104.255 126.844 100.551 125.383 98.0822 122.46C95.613 119.538 94.3784 115.996 94.3784 111.837C94.3784 109.252 94.8274 105.992 95.7253 102.057C96.6231 98.1226 97.8577 94.0195 99.4286 89.7477C101.113 85.3635 103.021 81.2604 105.153 77.4383C107.286 73.6162 109.586 70.5248 112.055 68.1641C114.525 65.691 116.994 64.4544 119.463 64.4544C120.81 64.4544 121.988 64.9041 122.999 65.8034C124.009 66.5903 124.514 67.7706 124.514 69.3444C124.514 70.8058 123.616 72.9979 121.82 75.9207C120.137 78.8435 118.117 82.2159 115.76 86.038C113.515 89.8601 111.494 93.8509 109.698 98.0102C108.015 102.057 107.173 105.935 107.173 109.645C107.173 113.242 107.791 115.659 109.025 116.896C110.372 118.02 112.28 118.582 114.75 118.582C118.565 118.582 122.718 116.671 127.207 112.849C131.697 109.027 136.354 102.338 141.18 92.7829L143.707 95.4809C139.778 105.373 134.783 113.074 128.722 118.582C122.662 124.09 116.152 126.844 109.193 126.844ZM129.06 50.796C126.927 50.796 124.963 50.2901 123.167 49.2784C121.483 48.1543 120.642 46.468 120.642 44.2198C120.642 41.5218 122.101 39.2173 125.019 37.3062C127.937 35.3952 130.967 34.4397 134.11 34.4397C136.13 34.4397 137.814 34.8893 139.16 35.7886C140.62 36.688 141.349 38.318 141.349 40.6787C141.349 43.0394 140.059 45.3439 137.477 47.5922C134.896 49.7281 132.09 50.796 129.06 50.796Z" fill="url(#paint1_linear_56063_123)"/>
<path d="M136.659 169C135.424 169 133.966 168.607 132.282 167.82C130.486 167.033 128.971 165.459 127.736 163.098C126.389 160.85 125.716 157.421 125.716 152.812C125.716 147.978 126.558 141.627 128.241 133.758C129.813 126.001 132.057 117.402 134.976 107.959C137.782 98.4035 141.092 88.6235 144.908 78.6186C148.837 68.6136 152.989 59.0022 157.366 49.7842C161.856 40.4538 166.458 32.0789 171.171 24.6595C175.997 17.2401 180.768 11.3383 185.481 6.95419C190.196 2.57002 194.741 0.37793 199.118 0.37793C202.037 0.37793 203.944 1.27725 204.843 3.07588C205.74 4.76211 206.189 6.72937 206.189 8.97766C206.189 13.8115 204.843 19.095 202.148 24.8281C199.567 30.5613 196.088 36.3506 191.711 42.1962C187.333 47.9293 182.395 53.3815 176.896 58.5525C171.508 63.7236 165.953 68.164 160.228 71.8737C159.78 72.9978 159.331 74.122 158.881 75.2461C158.433 76.3703 157.984 77.4944 157.535 78.6186C158.77 79.0682 159.723 79.8551 160.396 80.9793C161.182 82.1034 161.632 83.2838 161.744 84.5203C162.642 89.3542 163.539 93.6821 164.438 97.5042C165.335 101.214 166.682 104.137 168.478 106.273C170.385 108.408 173.08 109.476 176.559 109.476C180.487 109.476 183.966 108.015 186.996 105.092C190.028 102.169 193.114 98.0663 196.256 92.7828L199.96 95.4808C196.369 102.675 192.328 107.959 187.838 111.331C183.349 114.591 179.308 116.221 175.718 116.221C173.809 116.221 171.789 115.828 169.656 115.041C167.636 114.254 165.672 113.13 163.764 111.668C163.652 118.638 162.81 125.495 161.239 132.24C159.78 139.098 157.76 145.28 155.178 150.789C152.597 156.297 149.678 160.681 146.423 163.941C143.281 167.314 140.026 169 136.659 169ZM141.373 158.545C142.608 158.545 143.898 157.477 145.245 155.342C146.704 153.206 148.107 150.395 149.454 146.91C150.801 143.426 152.035 139.547 153.158 135.276C154.28 131.116 155.178 126.957 155.851 122.798C156.524 118.751 156.861 115.041 156.861 111.668C156.861 108.408 156.469 105.542 155.683 103.069C155.009 100.483 153.775 97.6166 151.979 94.469C149.397 102.226 147.097 109.701 145.076 116.896C143.056 124.09 141.485 130.61 140.363 136.456C139.24 142.414 138.679 147.36 138.679 151.295C138.679 156.129 139.577 158.545 141.373 158.545ZM165.111 60.0701C171.957 53.6625 177.793 47.4235 182.62 41.3531C187.446 35.2827 191.093 29.943 193.563 25.334C196.144 20.6126 197.435 17.2963 197.435 15.3853C197.435 14.486 196.985 14.0363 196.088 14.0363C193.394 14.0363 190.308 16.116 186.828 20.2753C183.349 24.3222 179.758 29.8306 176.054 36.8003C172.35 43.77 168.702 51.5266 165.111 60.0701Z" fill="url(#paint2_linear_56063_123)"/>
<path d="M192.229 169C190.994 169 189.535 168.607 187.852 167.82C186.056 167.033 184.541 165.459 183.306 163.098C181.959 160.85 181.286 157.534 181.286 153.15C181.286 148.203 182.127 141.796 183.811 133.927C185.383 126.17 187.627 117.514 190.545 107.959C193.352 98.4035 196.663 88.6235 200.478 78.6186C204.406 68.6136 208.559 59.0022 212.936 49.7842C217.425 40.4538 222.027 32.0789 226.741 24.6595C231.567 17.2401 236.338 11.3383 241.051 6.95419C245.766 2.57002 250.311 0.37793 254.688 0.37793C257.607 0.37793 259.514 1.22104 260.413 2.90726C261.31 4.59348 261.759 6.56074 261.759 8.80904C261.759 13.6428 260.413 18.9263 257.718 24.6595C255.137 30.3926 251.658 36.182 247.281 42.0276C242.903 47.7607 237.965 53.269 232.466 58.5525C227.078 63.7236 221.522 68.2202 215.799 72.0423C215.35 73.054 214.956 73.9534 214.619 74.7403C214.283 75.4147 213.89 76.3703 213.441 77.6068C214.451 78.1689 215.293 78.9558 215.967 79.9675C216.752 80.9793 217.201 82.1034 217.314 83.34C218.324 89.1855 220.232 93.2887 223.038 95.6494C225.844 98.0101 229.098 99.19 232.802 99.19C235.496 99.19 238.302 98.6846 241.22 97.6728C244.25 96.6611 247.113 95.4246 249.806 93.9632C251.153 87.8928 253.06 81.4289 255.53 74.5716C258.112 67.6019 261.029 60.6322 264.284 53.6625C267.651 46.5804 271.131 39.8917 274.723 33.5965C278.314 27.1888 281.793 21.5119 285.16 16.5656C288.639 11.507 291.782 7.57248 294.588 4.76211C297.507 1.83933 299.863 0.37793 301.658 0.37793C303.118 0.37793 304.353 1.16484 305.363 2.73864C306.485 4.20003 307.327 5.99867 307.888 8.13455C308.561 10.2704 308.898 12.1815 308.898 13.8677C308.898 16.9029 308.112 20.8374 306.541 25.6712C305.082 30.5051 303.006 35.8448 300.312 41.6903C297.618 47.5359 294.364 53.4939 290.548 59.5643C286.843 65.6347 282.691 71.424 278.089 76.9323C273.487 82.3282 268.606 87.1059 263.443 91.2652C262.881 94.188 262.376 97.167 261.928 100.202C261.591 103.125 261.423 105.767 261.423 108.127C261.423 112.062 262.039 114.985 263.274 116.896C264.621 118.807 266.36 119.762 268.493 119.762C271.523 119.762 274.554 118.413 277.584 115.715C280.727 113.017 283.645 109.645 286.338 105.598C289.144 101.439 291.501 97.167 293.41 92.7828L297.618 95.1435C292.792 105.148 287.517 113.074 281.793 118.919C276.181 124.652 270.065 127.519 263.443 127.519C257.606 127.519 253.565 125.552 251.321 121.617C249.076 117.683 247.954 112.849 247.954 107.116C247.954 105.317 248.123 103.35 248.459 101.214C242.398 104.137 236.393 105.598 230.446 105.598C228.65 105.598 226.741 105.373 224.721 104.924C222.813 104.474 220.905 103.856 218.997 103.069C218.997 104.08 219.053 105.092 219.166 106.104C219.277 107.116 219.334 108.071 219.334 108.971C219.334 116.053 218.604 123.135 217.146 130.217C215.686 137.299 213.666 143.763 211.084 149.608C208.615 155.454 205.753 160.119 202.499 163.604C199.243 167.201 195.82 169 192.229 169ZM196.774 158.545C198.458 158.545 200.198 156.915 201.994 153.655C203.789 150.508 205.472 146.405 207.044 141.346C208.615 136.4 209.906 131.06 210.916 125.327C211.926 119.706 212.431 114.366 212.431 109.308C212.431 106.835 212.151 104.08 211.589 101.045C211.141 97.8977 210.018 95.1435 208.222 92.7828C205.529 100.877 203.115 108.689 200.983 116.221C198.851 123.753 197.168 130.554 195.932 136.625C194.81 142.695 194.249 147.585 194.249 151.295C194.249 156.129 195.091 158.545 196.774 158.545ZM220.681 60.0701C227.303 53.8873 233.027 47.7607 237.853 41.6903C242.679 35.6199 246.382 30.224 248.964 25.5026C251.658 20.7812 253.004 17.3525 253.004 15.2167C253.004 14.4297 252.555 14.0363 251.658 14.0363C248.964 14.0363 245.877 16.116 242.398 20.2753C238.919 24.3222 235.328 29.8306 231.624 36.8003C227.919 43.77 224.272 51.5266 220.681 60.0701ZM266.305 81.6538C268.661 79.0682 271.299 75.9206 274.218 72.2109C277.135 68.3888 280.054 64.2857 282.971 59.9015C286.002 55.4049 288.808 50.7959 291.39 46.0745C293.97 41.3531 296.159 36.6879 297.955 32.0789C299.863 27.4699 301.042 23.1419 301.49 19.095C301.603 18.4205 301.658 17.8022 301.658 17.2401C301.658 16.6781 301.547 16.3408 301.322 16.2284C300.537 16.0036 299.133 17.1277 297.113 19.6008C295.093 22.074 292.736 25.5588 290.043 30.0554C287.348 34.4396 284.543 39.4982 281.625 45.2314C278.707 50.8521 275.901 56.8101 273.207 63.1053C270.513 69.2881 268.212 75.4709 266.305 81.6538Z" fill="url(#paint3_linear_56063_123)"/>
<path d="M308.599 129.205C301.416 129.205 295.859 127.238 291.932 123.303C288.116 119.481 286.207 114.647 286.207 108.802C286.207 103.856 287.442 98.6283 289.912 93.12C292.492 87.4992 295.916 82.2719 300.18 77.4381C304.446 72.4919 309.159 68.5011 314.322 65.4659C319.485 62.4307 324.648 60.9131 329.811 60.9131C332.729 60.9131 335.479 61.7 338.06 63.2739C340.754 64.7352 342.101 67.7142 342.101 72.2108C342.101 76.4826 340.867 80.4733 338.397 84.183C335.928 87.8927 332.617 91.2089 328.464 94.1317C324.311 97.0545 319.71 99.4709 314.659 101.383C309.721 103.181 304.727 104.362 299.675 104.924C299.564 105.373 299.451 105.879 299.339 106.441C299.339 106.891 299.339 107.678 299.339 108.802C299.339 109.364 299.396 110.376 299.507 111.837C299.732 113.186 300.237 114.647 301.022 116.221C301.808 117.795 303.099 119.144 304.895 120.268C306.69 121.392 309.159 121.954 312.302 121.954C317.017 121.954 321.73 120.662 326.444 118.076C331.27 115.378 335.759 111.837 339.912 107.453C344.178 103.069 347.713 98.1786 350.519 92.7827L353.886 95.4807C350.855 102.226 346.927 108.127 342.101 113.186C337.387 118.245 332.112 122.179 326.275 124.99C320.552 127.8 314.659 129.205 308.599 129.205ZM301.527 98.6845C304.446 98.3472 307.701 97.3355 311.292 95.6493C314.884 93.9631 318.307 91.8272 321.562 89.2417C324.929 86.6561 327.679 83.8457 329.811 80.8105C331.943 77.6629 333.01 74.5153 333.01 71.3677C333.01 70.1311 332.785 69.288 332.337 68.8384C331.888 68.3887 331.157 68.1639 330.147 68.1639C327.566 68.1639 324.873 69.1194 322.067 71.0305C319.261 72.8291 316.511 75.246 313.817 78.2812C311.124 81.204 308.711 84.464 306.578 88.0613C304.446 91.6586 302.762 95.1996 301.527 98.6845Z" fill="url(#paint4_linear_56063_123)"/>
<defs>
<linearGradient id="paint0_linear_56063_123" x1="0" y1="67.6485" x2="97.9818" y2="67.6485" gradientUnits="userSpaceOnUse">
<stop stop-color="#FF179E"/>
<stop offset="1" stop-color="#673AB7"/>
</linearGradient>
<linearGradient id="paint1_linear_56063_123" x1="94.3784" y1="80.6419" x2="143.707" y2="80.6419" gradientUnits="userSpaceOnUse">
<stop stop-color="#FF179E"/>
<stop offset="1" stop-color="#673AB7"/>
</linearGradient>
<linearGradient id="paint2_linear_56063_123" x1="125.716" y1="84.689" x2="206.189" y2="84.689" gradientUnits="userSpaceOnUse">
<stop stop-color="#FF179E"/>
<stop offset="1" stop-color="#673AB7"/>
</linearGradient>
<linearGradient id="paint3_linear_56063_123" x1="181.286" y1="84.689" x2="308.898" y2="84.689" gradientUnits="userSpaceOnUse">
<stop stop-color="#FF179E"/>
<stop offset="1" stop-color="#673AB7"/>
</linearGradient>
<linearGradient id="paint4_linear_56063_123" x1="286.207" y1="95.059" x2="353.886" y2="95.059" gradientUnits="userSpaceOnUse">
<stop stop-color="#FF179E"/>
<stop offset="1" stop-color="#673AB7"/>
</linearGradient>
</defs>
</svg>
